<mxfile host="app.diagrams.net" modified="2024-06-18T13:20:32.425Z" agent="Mozilla/5.0 (Windows NT 10.0; Win64; x64) AppleWebKit/537.36 (KHTML, like Gecko) Chrome/126.0.0.0 Safari/537.36" version="24.5.4" etag="ds1_Cu_951E7Lqkf22AO" type="github">
  <diagram name="Page-1" id="WkRwmRMEc_vkEMcjnxui">
    <mxGraphModel>
      <root>
        <mxCell id="0" />
        <mxCell id="1" parent="0" />
      </root>
    </mxGraphModel>
  </diagram>
</mxfile>
